<svg width="266" height="52" viewBox="0 0 266 52" fill="none" xmlns="http://www.w3.org/2000/svg">
<g clip-path="url(#clip0)">
<path d="M57.2812 25.4219C57.2812 22.7969 57.8958 20.7031 59.125 19.1406C60.3646 17.5677 62.0052 16.7812 64.0469 16.7812C65.974 16.7812 67.4896 17.4531 68.5938 18.7969L68.7656 17.0938H72.1875V33.4844C72.1875 35.7031 71.4948 37.4531 70.1094 38.7344C68.7344 40.0156 66.875 40.6562 64.5312 40.6562C63.2917 40.6562 62.0781 40.3958 60.8906 39.875C59.7135 39.3646 58.8177 38.6927 58.2031 37.8594L60 35.5781C61.1667 36.9635 62.6042 37.6562 64.3125 37.6562C65.5729 37.6562 66.5677 37.3125 67.2969 36.625C68.026 35.9479 68.3906 34.9479 68.3906 33.625V32.4844C67.2969 33.7031 65.8385 34.3125 64.0156 34.3125C62.0365 34.3125 60.4167 33.526 59.1562 31.9531C57.9062 30.3802 57.2812 28.2031 57.2812 25.4219ZM61.0625 25.75C61.0625 27.4479 61.4062 28.7865 62.0938 29.7656C62.7917 30.7344 63.7552 31.2188 64.9844 31.2188C66.5156 31.2188 67.651 30.5625 68.3906 29.25V21.8125C67.6719 20.5312 66.5469 19.8906 65.0156 19.8906C63.7656 19.8906 62.7917 20.3854 62.0938 21.375C61.4062 22.3646 61.0625 23.8229 61.0625 25.75ZM80.1406 34H76.3438V17.0938H80.1406V34ZM76.1094 12.7031C76.1094 12.1198 76.2917 11.6354 76.6562 11.25C77.0312 10.8646 77.5625 10.6719 78.25 10.6719C78.9375 10.6719 79.4688 10.8646 79.8438 11.25C80.2188 11.6354 80.4062 12.1198 80.4062 12.7031C80.4062 13.276 80.2188 13.7552 79.8438 14.1406C79.4688 14.5156 78.9375 14.7031 78.25 14.7031C77.5625 14.7031 77.0312 14.5156 76.6562 14.1406C76.2917 13.7552 76.1094 13.276 76.1094 12.7031ZM89.0469 12.9844V17.0938H92.0312V19.9062H89.0469V29.3438C89.0469 29.9896 89.1719 30.4583 89.4219 30.75C89.6823 31.0312 90.1406 31.1719 90.7969 31.1719C91.2344 31.1719 91.6771 31.1198 92.125 31.0156V33.9531C91.2604 34.1927 90.4271 34.3125 89.625 34.3125C86.7083 34.3125 85.25 32.7031 85.25 29.4844V19.9062H82.4688V17.0938H85.25V12.9844H89.0469ZM98.6875 18.9375C99.9271 17.5 101.495 16.7812 103.391 16.7812C106.995 16.7812 108.823 18.8385 108.875 22.9531V34H105.078V23.0938C105.078 21.9271 104.823 21.1042 104.312 20.625C103.812 20.1354 103.073 19.8906 102.094 19.8906C100.573 19.8906 99.4375 20.5677 98.6875 21.9219V34H94.8906V10H98.6875V18.9375ZM122.969 32.3438C121.854 33.6562 120.271 34.3125 118.219 34.3125C116.385 34.3125 114.995 33.776 114.047 32.7031C113.109 31.6302 112.641 30.0781 112.641 28.0469V17.0938H116.438V28C116.438 30.1458 117.328 31.2188 119.109 31.2188C120.953 31.2188 122.198 30.5573 122.844 29.2344V17.0938H126.641V34H123.062L122.969 32.3438ZM145.344 25.7188C145.344 28.3438 144.755 30.4323 143.578 31.9844C142.411 33.5365 140.802 34.3125 138.75 34.3125C136.771 34.3125 135.229 33.599 134.125 32.1719L133.938 34H130.5V10H134.297V18.7188C135.391 17.4271 136.865 16.7812 138.719 16.7812C140.781 16.7812 142.401 17.5469 143.578 19.0781C144.755 20.6094 145.344 22.75 145.344 25.5V25.7188ZM141.547 25.3906C141.547 23.5573 141.224 22.1823 140.578 21.2656C139.932 20.349 138.995 19.8906 137.766 19.8906C136.12 19.8906 134.964 20.6094 134.297 22.0469V29.0156C134.974 30.4844 136.141 31.2188 137.797 31.2188C138.984 31.2188 139.901 30.776 140.547 29.8906C141.193 29.0052 141.526 27.6667 141.547 25.875V25.3906Z" fill="#737380"/>
<path d="M160.969 36.9844H146.641V34H160.969V36.9844ZM177.812 25.7188C177.812 28.3438 177.224 30.4323 176.047 31.9844C174.88 33.5365 173.271 34.3125 171.219 34.3125C169.24 34.3125 167.698 33.599 166.594 32.1719L166.406 34H162.969V10H166.766V18.7188C167.859 17.4271 169.333 16.7812 171.188 16.7812C173.25 16.7812 174.87 17.5469 176.047 19.0781C177.224 20.6094 177.812 22.75 177.812 25.5V25.7188ZM174.016 25.3906C174.016 23.5573 173.693 22.1823 173.047 21.2656C172.401 20.349 171.464 19.8906 170.234 19.8906C168.589 19.8906 167.432 20.6094 166.766 22.0469V29.0156C167.443 30.4844 168.609 31.2188 170.266 31.2188C171.453 31.2188 172.37 30.776 173.016 29.8906C173.661 29.0052 173.995 27.6667 174.016 25.875V25.3906ZM191.109 34C190.943 33.6771 190.797 33.151 190.672 32.4219C189.464 33.6823 187.984 34.3125 186.234 34.3125C184.536 34.3125 183.151 33.8281 182.078 32.8594C181.005 31.8906 180.469 30.6927 180.469 29.2656C180.469 27.4635 181.135 26.0833 182.469 25.125C183.812 24.1562 185.729 23.6719 188.219 23.6719H190.547V22.5625C190.547 21.6875 190.302 20.9896 189.812 20.4688C189.323 19.9375 188.578 19.6719 187.578 19.6719C186.714 19.6719 186.005 19.8906 185.453 20.3281C184.901 20.7552 184.625 21.3021 184.625 21.9688H180.828C180.828 21.0417 181.135 20.1771 181.75 19.375C182.365 18.5625 183.198 17.9271 184.25 17.4688C185.312 17.0104 186.495 16.7812 187.797 16.7812C189.776 16.7812 191.354 17.2812 192.531 18.2812C193.708 19.2708 194.312 20.6667 194.344 22.4688V30.0938C194.344 31.6146 194.557 32.8281 194.984 33.7344V34H191.109ZM186.938 31.2656C187.688 31.2656 188.391 31.0833 189.047 30.7188C189.714 30.3542 190.214 29.8646 190.547 29.25V26.0625H188.5C187.094 26.0625 186.036 26.3073 185.328 26.7969C184.62 27.2865 184.266 27.9792 184.266 28.875C184.266 29.6042 184.505 30.1875 184.984 30.625C185.474 31.0521 186.125 31.2656 186.938 31.2656ZM197.609 25.4219C197.609 22.8177 198.214 20.7292 199.422 19.1562C200.63 17.5729 202.25 16.7812 204.281 16.7812C206.073 16.7812 207.521 17.4062 208.625 18.6562V10H212.422V34H208.984L208.797 32.25C207.661 33.625 206.146 34.3125 204.25 34.3125C202.271 34.3125 200.667 33.5156 199.438 31.9219C198.219 30.3281 197.609 28.1615 197.609 25.4219ZM201.406 25.75C201.406 27.4688 201.734 28.8125 202.391 29.7812C203.057 30.7396 204 31.2188 205.219 31.2188C206.771 31.2188 207.906 30.526 208.625 29.1406V21.9219C207.927 20.5677 206.802 19.8906 205.25 19.8906C204.021 19.8906 203.073 20.3802 202.406 21.3594C201.74 22.3281 201.406 23.7917 201.406 25.75ZM215.719 25.4219C215.719 22.7969 216.333 20.7031 217.562 19.1406C218.802 17.5677 220.443 16.7812 222.484 16.7812C224.411 16.7812 225.927 17.4531 227.031 18.7969L227.203 17.0938H230.625V33.4844C230.625 35.7031 229.932 37.4531 228.547 38.7344C227.172 40.0156 225.312 40.6562 222.969 40.6562C221.729 40.6562 220.516 40.3958 219.328 39.875C218.151 39.3646 217.255 38.6927 216.641 37.8594L218.438 35.5781C219.604 36.9635 221.042 37.6562 222.75 37.6562C224.01 37.6562 225.005 37.3125 225.734 36.625C226.464 35.9479 226.828 34.9479 226.828 33.625V32.4844C225.734 33.7031 224.276 34.3125 222.453 34.3125C220.474 34.3125 218.854 33.526 217.594 31.9531C216.344 30.3802 215.719 28.2031 215.719 25.4219ZM219.5 25.75C219.5 27.4479 219.844 28.7865 220.531 29.7656C221.229 30.7344 222.193 31.2188 223.422 31.2188C224.953 31.2188 226.089 30.5625 226.828 29.25V21.8125C226.109 20.5312 224.984 19.8906 223.453 19.8906C222.203 19.8906 221.229 20.3854 220.531 21.375C219.844 22.3646 219.5 23.8229 219.5 25.75ZM241.984 34.3125C239.578 34.3125 237.625 33.5573 236.125 32.0469C234.635 30.526 233.891 28.5052 233.891 25.9844V25.5156C233.891 23.8281 234.214 22.3229 234.859 21C235.516 19.6667 236.432 18.6302 237.609 17.8906C238.786 17.151 240.099 16.7812 241.547 16.7812C243.849 16.7812 245.625 17.5156 246.875 18.9844C248.135 20.4531 248.766 22.5312 248.766 25.2188V26.75H237.719C237.833 28.1458 238.297 29.25 239.109 30.0625C239.932 30.875 240.964 31.2812 242.203 31.2812C243.943 31.2812 245.359 30.5781 246.453 29.1719L248.5 31.125C247.823 32.1354 246.917 32.9219 245.781 33.4844C244.656 34.0365 243.391 34.3125 241.984 34.3125ZM241.531 19.8281C240.49 19.8281 239.646 20.1927 239 20.9219C238.365 21.651 237.958 22.6667 237.781 23.9688H245.016V23.6875C244.932 22.4167 244.594 21.4583 244 20.8125C243.406 20.1562 242.583 19.8281 241.531 19.8281ZM261.203 29.4062C261.203 28.7292 260.922 28.2135 260.359 27.8594C259.807 27.5052 258.885 27.1927 257.594 26.9219C256.302 26.651 255.224 26.3073 254.359 25.8906C252.464 24.974 251.516 23.6458 251.516 21.9062C251.516 20.4479 252.13 19.2292 253.359 18.25C254.589 17.2708 256.151 16.7812 258.047 16.7812C260.068 16.7812 261.698 17.2812 262.938 18.2812C264.188 19.2812 264.812 20.5781 264.812 22.1719H261.016C261.016 21.4427 260.745 20.8385 260.203 20.3594C259.661 19.8698 258.943 19.625 258.047 19.625C257.214 19.625 256.531 19.8177 256 20.2031C255.479 20.5885 255.219 21.1042 255.219 21.75C255.219 22.3333 255.464 22.7865 255.953 23.1094C256.443 23.4323 257.432 23.7604 258.922 24.0938C260.411 24.4167 261.578 24.8073 262.422 25.2656C263.276 25.7135 263.906 26.2552 264.312 26.8906C264.729 27.526 264.938 28.2969 264.938 29.2031C264.938 30.724 264.307 31.9583 263.047 32.9062C261.786 33.8438 260.135 34.3125 258.094 34.3125C256.708 34.3125 255.474 34.0625 254.391 33.5625C253.307 33.0625 252.464 32.375 251.859 31.5C251.255 30.625 250.953 29.6823 250.953 28.6719H254.641C254.693 29.5677 255.031 30.2604 255.656 30.75C256.281 31.2292 257.109 31.4688 258.141 31.4688C259.141 31.4688 259.901 31.2812 260.422 30.9062C260.943 30.5208 261.203 30.0208 261.203 29.4062Z" fill="#A8A8B3"/>
<path d="M24.0002 0C10.818 0 0 10.8179 0 24C0 35.2489 7.89337 45.4673 18.3751 48V40.0598C17.3366 40.2872 16.3807 40.2938 15.3235 39.9822C13.9051 39.5636 12.7527 38.6188 11.8972 37.1781C11.3519 36.2582 10.3855 35.2606 9.37727 35.3339L9.13007 32.5323C11.3101 32.3456 13.1961 33.8606 14.3157 35.7415C14.813 36.5779 15.3854 37.0682 16.12 37.285C16.8301 37.4941 17.5925 37.3938 18.481 37.08C18.704 35.3013 19.5188 34.6355 20.1344 33.698V33.6965C13.8832 32.7642 11.3918 29.4478 10.403 26.8301C9.09272 23.3544 9.79585 19.0122 12.1129 16.2682C12.1579 16.2147 12.2392 16.0748 12.2077 15.9771C11.1453 12.7679 12.4399 10.1133 12.4875 9.83167C13.7136 10.1942 13.9128 9.46692 17.8134 11.8367L18.4876 12.2417C18.7696 12.4098 18.6809 12.3138 18.9629 12.2926C20.5915 11.8502 22.3083 11.606 23.9998 11.584C25.7042 11.606 27.41 11.8502 29.1059 12.3105L29.3242 12.3325C29.3052 12.3296 29.3835 12.3186 29.515 12.2402C34.3875 9.28894 34.2124 10.2535 35.5191 9.82874C35.5663 10.1107 36.8437 12.8086 35.7926 15.9771C35.6509 16.4136 40.0169 20.4115 37.597 26.829C36.6082 29.4478 34.1172 32.7642 27.8659 33.6965V33.698C28.6672 34.9193 29.63 35.569 29.6249 38.0885V48C40.107 45.4673 48 35.2489 48 24C48.0004 10.8179 37.1824 0 24.0002 0V0Z" fill="black"/>
</g>
<defs>
<clipPath id="clip0">
<rect width="266" height="52" fill="white"/>
</clipPath>
</defs>
</svg>
